<svg id="Ebene_1" data-name="Ebene 1" xmlns="http://www.w3.org/2000/svg" xmlns:xlink="http://www.w3.org/1999/xlink" viewBox="0 0 82.9 82.9"><defs><clipPath id="clip-path" transform="translate(-31.64 -24.13)"><rect x="31.64" y="24.13" width="82.9" height="82.9" style="fill:none"/></clipPath></defs><g style="clip-path:url(#clip-path)"><path d="M83.93,35.07A10.8,10.8,0,0,0,72.28,24.15a12.2,12.2,0,0,0-3.09.57,10.67,10.67,0,0,0-4.26,3c-.26.33-.52.67-.77,1.06h0l0,0a10.83,10.83,0,0,0-1.89,6,15.32,15.32,0,0,0,1.43,6.88c1.14,3.23,5,7.47,9.3,11,4.28-3.35,8.16-7.45,9.36-10.6a15.39,15.39,0,0,0,1.59-6.85m-8.77-.61a2.07,2.07,0,1,1-2-2.06,2.06,2.06,0,0,1,2,2.06" transform="translate(-31.64 -24.13)" style="fill:#2dafe6"/><path d="M62.25,96.08A10.8,10.8,0,0,0,73.9,107a11.77,11.77,0,0,0,3.09-.57,10.57,10.57,0,0,0,4.26-3c.26-.33.52-.67.77-1.06h0l0,0a10.83,10.83,0,0,0,1.89-6,15.36,15.36,0,0,0-1.43-6.88c-1.14-3.22-5-7.47-9.29-11-4.29,3.35-8.16,7.45-9.36,10.61a15.28,15.28,0,0,0-1.6,6.84m8.77.61a2.07,2.07,0,0,1,4.13,0,2,2,0,0,1-2.07,2A2.07,2.07,0,0,1,71,96.69" transform="translate(-31.64 -24.13)" style="fill:#5f2e78"/><path d="M42.58,54.73A10.82,10.82,0,0,0,31.66,66.39a12.65,12.65,0,0,0,.57,3.09,10.59,10.59,0,0,0,3,4.25,9.62,9.62,0,0,0,1.06.77h0l0,0a10.89,10.89,0,0,0,6,1.9A15.22,15.22,0,0,0,49.09,75c3.22-1.13,7.47-5,10.95-9.29-3.36-4.29-7.45-8.16-10.61-9.36a15.47,15.47,0,0,0-6.85-1.6M42,63.51a2.07,2.07,0,1,1-2.06,2.05A2,2,0,0,1,42,63.51" transform="translate(-31.64 -24.13)" style="fill:#5671ae"/><path d="M103.6,76.42a10.81,10.81,0,0,0,10.92-11.66,12.66,12.66,0,0,0-.57-3.08,10.62,10.62,0,0,0-3-4.26,10,10,0,0,0-1.06-.77h0l0,0a11,11,0,0,0-6-1.9,15.3,15.3,0,0,0-6.88,1.44c-3.23,1.13-7.47,5-10.95,9.29,3.35,4.29,7.44,8.16,10.6,9.36a15.47,15.47,0,0,0,6.85,1.6m.6-8.77a2.07,2.07,0,1,1,2.07-2.06,2.06,2.06,0,0,1-2.07,2.06" transform="translate(-31.64 -24.13)" style="fill:#5671ae"/><path d="M96.45,50.5a5.84,5.84,0,0,0-.28-8.62,6.81,6.81,0,0,0-1.4-1A5.55,5.55,0,0,0,92,40.43a6,6,0,0,0-.69.1h0s0,0,0,0a6,6,0,0,0-3,1.56,8.43,8.43,0,0,0-2.08,3.18c-.79,1.66-.94,4.77-.63,7.73,2.92.35,6,.27,7.62-.48a8.27,8.27,0,0,0,3.23-2m-3.12-3.58a1.12,1.12,0,1,1,0-1.58,1.13,1.13,0,0,1,0,1.58" transform="translate(-31.64 -24.13)" style="fill:#4891ca"/><path d="M49.73,80.65A5.83,5.83,0,0,0,50,89.27a6.37,6.37,0,0,0,1.39,1,5.69,5.69,0,0,0,2.76.5c.23,0,.45-.06.7-.11h0v0a5.94,5.94,0,0,0,3-1.57A8.21,8.21,0,0,0,60,85.9c.8-1.66.94-4.77.63-7.73-2.91-.35-6-.27-7.62.48a8.39,8.39,0,0,0-3.23,2m3.12,3.58a1.13,1.13,0,0,1,1.58,0,1.11,1.11,0,0,1-1.58,1.56,1.13,1.13,0,0,1,0-1.58" transform="translate(-31.64 -24.13)" style="fill:#5d5091"/><path d="M58,42.22a5.82,5.82,0,0,0-8.61.28,6.24,6.24,0,0,0-1,1.4,5.62,5.62,0,0,0-.49,2.75,6,6,0,0,0,.11.7h0a5.84,5.84,0,0,0,1.56,3,8.11,8.11,0,0,0,3.18,2.08c1.66.8,4.76.94,7.72.64.36-2.92.28-6-.47-7.63a8.37,8.37,0,0,0-2-3.22m-3.58,3.12a1.12,1.12,0,0,1,0,1.57,1.13,1.13,0,0,1-1.58,0,1.12,1.12,0,0,1,0-1.57,1.1,1.1,0,0,1,1.57,0" transform="translate(-31.64 -24.13)" style="fill:#4891ca"/><path d="M88.17,88.93a5.83,5.83,0,0,0,8.62-.28,6.74,6.74,0,0,0,1-1.39,5.68,5.68,0,0,0,.49-2.76,4.41,4.41,0,0,0-.11-.7h0a5.81,5.81,0,0,0-1.56-3,8.28,8.28,0,0,0-3.17-2.08c-1.67-.8-4.77-.94-7.73-.63-.36,2.91-.27,6,.47,7.62a8.23,8.23,0,0,0,2,3.22m3.58-3.11a1.12,1.12,0,0,1,1.59-1.57,1.12,1.12,0,0,1-1.59,1.57" transform="translate(-31.64 -24.13)" style="fill:#5d5091"/></g></svg>